# This file uses centimeters as units for non-parametric coordinates.

mtllib block4.mtl
g default
v -0.500000 -0.500000 0.450005
v -0.450005 -0.500000 0.500000
v -0.475002 -0.500000 0.493302
v -0.493302 -0.500000 0.475002
v -0.500000 0.500000 0.450005
v -0.493302 0.500000 0.475002
v -0.475002 0.500000 0.493302
v -0.450005 0.500000 0.500000
v 0.500000 -0.500000 0.450005
v 0.493302 -0.500000 0.475002
v 0.475002 -0.500000 0.493302
v 0.450005 -0.500000 0.500000
v 0.500000 0.500000 0.450005
v 0.450005 0.500000 0.500000
v 0.475002 0.500000 0.493302
v 0.493302 0.500000 0.475002
v -0.475002 0.500000 -0.493302
v -0.493302 0.500000 -0.475002
v -0.500000 0.500000 -0.450005
v -0.450005 0.500000 -0.500000
v -0.500000 -0.500000 -0.450005
v -0.493302 -0.500000 -0.475002
v -0.475002 -0.500000 -0.493302
v -0.450005 -0.500000 -0.500000
v 0.493302 0.500000 -0.475002
v 0.475002 0.500000 -0.493302
v 0.450005 0.500000 -0.500000
v 0.500000 0.500000 -0.450005
v 0.500000 -0.500000 -0.450005
v 0.450005 -0.500000 -0.500000
v 0.475002 -0.500000 -0.493302
v 0.493302 -0.500000 -0.475002
vt 0.387499 0.000000
vt 0.137499 0.000000
vt 0.362501 0.250000
vt 0.637499 0.000000
vt 0.862501 0.250000
vt 0.362501 0.000000
vt 0.387499 0.250000
vt 0.612501 0.000000
vt 0.637499 0.250000
vt 0.137499 0.250000
vt 0.387499 0.750000
vt 0.612501 0.500000
vt 0.862501 0.000000
vt 0.387499 0.500000
vt 0.375000 0.487501
vt 0.375000 0.262499
vt 0.612501 0.250000
vt 0.625000 0.262499
vt 0.625000 0.487501
vt 0.625000 0.762499
vt 0.625000 0.987501
vt 0.612501 1.000000
vt 0.387499 1.000000
vt 0.375000 0.987501
vt 0.375000 0.762499
vt 0.612501 0.750000
vt -0.000000 -0.000000
vt 0.379166 -0.000000
vt -0.000000 -0.000000
vt 0.370834 -0.000000
vt 0.375000 0.250000
vt 0.381249 0.250000
vt -0.000000 -0.000000
vt 0.629166 -0.000000
vt -0.000000 -0.000000
vt 0.620834 -0.000000
vt 0.618751 0.250000
vt 0.625000 0.250000
vt 0.381249 0.500000
vt 0.375000 0.500000
vt 0.125000 0.250000
vt 0.375000 0.750000
vt 0.125000 0.000000
vt 0.381249 0.750000
vt 0.625000 0.500000
vt 0.875000 0.250000
vt 0.618751 0.500000
vt 0.618751 0.750000
vt 0.875000 0.000000
vt 0.625000 0.750000
vn -0.007241 0.000000 0.999974
vn -0.007241 0.000000 0.999974
vn 0.007241 0.000000 0.999974
vn 0.007241 0.000000 0.999974
vn -0.007241 0.000000 -0.999974
vn -0.007241 0.000000 -0.999974
vn 0.007241 0.000000 -0.999974
vn 0.007241 0.000000 -0.999974
vn 0.999974 0.000000 0.007241
vn 0.999974 0.000000 0.007241
vn 0.999974 0.000000 -0.007241
vn 0.999974 0.000000 -0.007241
vn -0.999974 0.000000 -0.007241
vn -0.999974 0.000000 -0.007241
vn -0.999974 0.000000 0.007241
vn -0.999974 0.000000 0.007241
vn -0.866025 0.000000 0.500001
vn -0.866026 0.000000 0.500000
vn -0.500000 0.000000 0.866026
vn -0.500000 0.000000 0.866025
vn 0.500000 0.000000 0.866025
vn 0.500000 0.000000 0.866026
vn 0.866026 0.000000 0.500000
vn 0.866025 0.000000 0.500001
vn -0.866025 0.000000 -0.500001
vn -0.866026 0.000000 -0.500000
vn -0.500000 0.000000 -0.866026
vn -0.500000 0.000000 -0.866025
vn 0.500000 0.000000 -0.866025
vn 0.500000 0.000000 -0.866026
vn 0.866026 0.000000 -0.500000
vn 0.866025 0.000000 -0.500001
vn 0.000000 1.000000 0.000000
vn 0.000000 1.000000 0.000000
vn 0.000000 1.000000 0.000000
vn 0.000000 1.000000 0.000000
vn 0.000000 1.000000 -0.000000
vn 0.000000 1.000000 -0.000000
vn 0.000000 1.000000 -0.000001
vn 0.000000 1.000000 0.000000
vn 0.000000 1.000000 -0.000000
vn 0.000000 1.000000 -0.000001
vn 0.000000 1.000000 -0.000000
vn 0.000000 1.000000 0.000000
vn 0.000000 1.000000 0.000000
vn 0.000000 1.000000 0.000000
vn 0.000000 1.000000 0.000000
vn 0.000000 1.000000 0.000000
vn 0.000000 -1.000000 0.000000
vn 0.000000 -1.000000 0.000000
vn 0.000000 -1.000000 0.000000
vn 0.000000 -1.000000 0.000000
vn 0.000000 -1.000000 0.000000
vn 0.000000 -1.000000 -0.000000
vn 0.000000 -1.000000 -0.000001
vn 0.000000 -1.000000 -0.000000
vn 0.000000 -1.000000 0.000000
vn 0.000000 -1.000000 0.000000
vn 0.000000 -1.000000 0.000000
vn 0.000000 -1.000000 0.000000
vn 0.000000 -1.000000 0.000000
vn 0.000000 -1.000000 0.000000
vn 0.000000 -1.000000 0.000000
vn 0.000000 -1.000000 0.000000
s 1
g pCube1
usemtl initialShadingGroup
f 8/7/1 2/1/2 14/17/3
f 14/17/3 2/1/2 12/8/4
f 24/11/5 20/14/6 30/26/7
f 30/26/7 20/14/6 27/12/8
f 13/9/9 9/4/10 28/5/11
f 28/5/11 9/4/10 29/13/12
f 19/10/13 21/2/14 5/3/15
f 5/3/15 21/2/14 1/6/16
f 1/6/16 4/30/17 5/3/15
f 5/3/15 4/30/17 6/31/18
f 4/30/17 3/28/19 6/31/18
f 6/31/18 3/28/19 7/32/20
f 3/28/19 2/1/2 7/32/20
f 7/32/20 2/1/2 8/7/1
f 12/8/4 11/36/21 14/17/3
f 14/17/3 11/36/21 15/37/22
f 11/36/21 10/34/23 15/37/22
f 15/37/22 10/34/23 16/38/24
f 10/34/23 9/4/10 16/38/24
f 16/38/24 9/4/10 13/9/9
f 19/10/13 18/41/25 21/2/14
f 21/2/14 18/41/25 22/43/26
f 18/40/25 17/39/27 22/42/26
f 22/42/26 17/39/27 23/44/28
f 17/39/27 20/14/6 23/44/28
f 23/44/28 20/14/6 24/11/5
f 27/12/8 26/47/29 30/26/7
f 30/26/7 26/47/29 31/48/30
f 26/47/29 25/45/31 31/48/30
f 31/48/30 25/45/31 32/50/32
f 25/46/31 28/5/11 32/49/32
f 32/49/32 28/5/11 29/13/12
s 5
f 25/45/33 26/47/34 28/19/35
f 26/47/34 27/12/36 28/19/35
f 27/12/36 20/14/37 28/19/35
f 28/19/35 20/14/37 13/18/38
f 20/14/37 17/39/39 13/18/38
f 17/39/39 18/40/40 13/18/38
f 18/40/40 19/15/41 13/18/38
f 13/18/38 19/15/41 16/38/42
f 16/38/42 19/15/41 15/37/43
f 15/37/43 19/15/41 14/17/44
f 6/31/45 7/32/46 5/16/47
f 7/32/46 8/7/48 5/16/47
f 5/16/47 8/7/48 19/15/41
f 19/15/41 8/7/48 14/17/44
s 7
f 10/33/49 11/35/50 9/21/51
f 11/35/50 12/22/52 9/21/51
f 9/21/51 12/22/52 29/20/53
f 12/22/52 2/23/54 29/20/53
f 29/20/53 2/23/54 32/50/55
f 32/50/55 2/23/54 31/48/56
f 31/48/56 2/23/54 30/26/57
f 2/23/54 3/27/58 30/26/57
f 3/27/58 4/29/59 30/26/57
f 4/29/59 1/24/60 30/26/57
f 22/42/61 23/44/62 21/25/63
f 23/44/62 24/11/64 21/25/63
f 21/25/63 24/11/64 1/24/60
f 1/24/60 24/11/64 30/26/57
