# This file uses centimeters as units for non-parametric coordinates.

mtllib block2.mtl
g default
v -0.500000 -0.500000 0.500000
v 0.500000 -0.500000 0.500000
v -0.500000 0.500000 0.500000
v 0.500000 0.500000 0.500000
v -0.450005 0.500000 -0.486604
v -0.486604 0.500000 -0.450005
v -0.500000 0.500000 -0.400010
v -0.400010 0.500000 -0.500000
v -0.500000 -0.500000 -0.400010
v -0.486604 -0.500000 -0.450005
v -0.450005 -0.500000 -0.486604
v -0.400010 -0.500000 -0.500000
v 0.410008 0.500000 -0.500000
v 0.500000 0.500000 -0.410008
v 0.487943 0.500000 -0.455004
v 0.455004 0.500000 -0.487943
v 0.410008 -0.500000 -0.500000
v 0.455004 -0.500000 -0.487943
v 0.487943 -0.500000 -0.455004
v 0.500000 -0.500000 -0.410008
vt 0.375000 0.000000
vt 0.149998 0.000000
vt 0.375000 0.250000
vt 0.149998 0.250000
vt 0.399998 0.750000
vt 0.386691 0.501571
vt 0.375000 0.500000
vt 0.125000 0.250000
vt 0.125000 0.000000
vt 0.625000 0.000000
vt 0.852502 0.250000
vt 0.602502 0.500000
vt 0.852502 0.000000
vt 0.399998 0.500000
vt 0.375000 0.475002
vt 0.625000 0.250000
vt 0.625000 0.477502
vt 0.625000 1.000000
vt 0.375000 1.000000
vt 0.375000 0.774997
vt 0.375000 0.750000
vt 0.386576 0.747806
vt 0.602502 0.750000
vt 0.625000 0.772498
vt 0.625000 0.500000
vt 0.875000 0.250000
vt 0.614594 0.501971
vt 0.614266 0.749833
vt 0.875000 0.000000
vt 0.625000 0.750000
vn 0.000000 0.000000 1.000000
vn 0.000000 0.000000 1.000000
vn 0.000000 0.000000 1.000000
vn 0.000000 0.000000 1.000000
vn -0.015575 0.000000 -0.999879
vn -0.015575 0.000000 -0.999879
vn 0.014100 0.000000 -0.999901
vn 0.014100 0.000000 -0.999901
vn 1.000000 0.000000 0.000000
vn 0.999920 0.000000 -0.012624
vn 1.000000 0.000000 0.000000
vn 0.999920 0.000000 -0.012624
vn -0.999901 0.000000 -0.014100
vn -0.999901 0.000000 -0.014100
vn -1.000000 0.000000 0.000000
vn -1.000000 0.000000 0.000000
vn -0.866025 0.000000 -0.500000
vn -0.866025 0.000000 -0.500000
vn -0.500000 0.000000 -0.866026
vn -0.500000 0.000000 -0.866025
vn 0.500000 0.000000 -0.866026
vn 0.500000 0.000000 -0.866025
vn 0.866025 0.000000 -0.500000
vn 0.866026 0.000000 -0.500000
vn 0.000000 1.000000 0.000000
vn 0.000000 1.000000 0.000000
vn 0.000000 1.000000 -0.000000
vn 0.000000 1.000000 0.000000
vn 0.000000 1.000000 0.000000
vn 0.000000 1.000000 -0.000000
vn 0.000000 1.000000 0.000000
vn 0.000000 1.000000 -0.000000
vn 0.000000 1.000000 -0.000002
vn 0.000000 1.000000 0.000003
vn 0.000000 -1.000000 0.000000
vn 0.000000 -1.000000 -0.000000
vn 0.000000 -1.000000 0.000000
vn 0.000000 -1.000000 -0.000000
vn 0.000000 -1.000000 -0.000000
vn 0.000000 -1.000000 0.000000
vn 0.000000 -1.000000 0.000000
vn 0.000000 -1.000000 0.000001
vn 0.000000 -1.000000 0.000000
vn 0.000000 -1.000000 0.000000
s 1
g pCube2
usemtl initialShadingGroup
f 1/1/1 2/10/2 3/3/3
f 3/3/3 2/10/2 4/16/4
s 2
f 12/5/5 8/14/6 17/23/7
f 17/23/7 8/14/6 13/12/8
f 2/10/9 20/13/10 4/16/11
f 4/16/11 20/13/10 14/11/12
f 7/4/13 9/2/14 3/3/15
f 3/3/15 9/2/14 1/1/16
f 7/4/13 6/8/17 9/2/14
f 9/2/14 6/8/17 10/9/18
f 6/7/17 5/6/19 10/21/18
f 10/21/18 5/6/19 11/22/20
f 5/6/19 8/14/6 11/22/20
f 11/22/20 8/14/6 12/5/5
f 13/12/8 16/27/21 17/23/7
f 17/23/7 16/27/21 18/28/22
f 16/27/21 15/25/23 18/28/22
f 18/28/22 15/25/23 19/30/24
f 15/26/23 14/11/12 19/29/24
f 19/29/24 14/11/12 20/13/10
s 5
f 3/3/25 4/16/26 7/15/27
f 7/15/27 4/16/26 6/7/28
f 6/7/28 4/16/26 5/6/29
f 5/6/29 4/16/26 8/14/30
f 4/16/26 14/17/31 8/14/30
f 14/17/31 15/25/32 8/14/30
f 15/25/32 16/27/33 8/14/30
f 13/12/34 8/14/30 16/27/33
s 6
f 2/18/35 1/19/36 20/24/37
f 20/24/37 1/19/36 19/30/38
f 19/30/38 1/19/36 18/28/39
f 18/28/39 1/19/36 17/23/40
f 1/19/36 9/20/41 17/23/40
f 9/20/41 10/21/42 17/23/40
f 10/21/42 11/22/43 17/23/40
f 11/22/43 12/5/44 17/23/40
g default
v -0.500000 -0.500000 0.500000
v 0.500000 -0.500000 0.500000
v -0.500000 0.500000 0.500000
v 0.500000 0.500000 0.500000
v -0.450005 0.500000 -0.486604
v -0.486604 0.500000 -0.450005
v -0.500000 0.500000 -0.400010
v -0.400010 0.500000 -0.500000
v -0.500000 -0.500000 -0.400010
v -0.486604 -0.500000 -0.450005
v -0.450005 -0.500000 -0.486604
v -0.400010 -0.500000 -0.500000
v 0.410008 0.500000 -0.500000
v 0.500000 0.500000 -0.410008
v 0.487943 0.500000 -0.455004
v 0.455004 0.500000 -0.487943
v 0.410008 -0.500000 -0.500000
v 0.455004 -0.500000 -0.487943
v 0.487943 -0.500000 -0.455004
v 0.500000 -0.500000 -0.410008
vt 0.375000 0.000000
vt 0.149998 0.000000
vt 0.375000 0.250000
vt 0.149998 0.250000
vt 0.399998 0.750000
vt 0.386691 0.501571
vt 0.375000 0.500000
vt 0.125000 0.250000
vt 0.125000 0.000000
vt 0.625000 0.000000
vt 0.852502 0.250000
vt 0.602502 0.500000
vt 0.852502 0.000000
vt 0.399998 0.500000
vt 0.375000 0.475002
vt 0.625000 0.250000
vt 0.625000 0.477502
vt 0.625000 1.000000
vt 0.375000 1.000000
vt 0.375000 0.774997
vt 0.375000 0.750000
vt 0.386576 0.747806
vt 0.602502 0.750000
vt 0.625000 0.772498
vt 0.625000 0.500000
vt 0.875000 0.250000
vt 0.614594 0.501971
vt 0.614266 0.749833
vt 0.875000 0.000000
vt 0.625000 0.750000
vn 0.000000 0.000000 1.000000
vn 0.000000 0.000000 1.000000
vn 0.000000 0.000000 1.000000
vn 0.000000 0.000000 1.000000
vn -0.015575 0.000000 -0.999879
vn -0.015575 0.000000 -0.999879
vn 0.014100 0.000000 -0.999901
vn 0.014100 0.000000 -0.999901
vn 1.000000 0.000000 0.000000
vn 0.999920 0.000000 -0.012624
vn 1.000000 0.000000 0.000000
vn 0.999920 0.000000 -0.012624
vn -0.999901 0.000000 -0.014100
vn -0.999901 0.000000 -0.014100
vn -1.000000 0.000000 0.000000
vn -1.000000 0.000000 0.000000
vn -0.866025 0.000000 -0.500000
vn -0.866025 0.000000 -0.500000
vn -0.500000 0.000000 -0.866026
vn -0.500000 0.000000 -0.866025
vn 0.500000 0.000000 -0.866026
vn 0.500000 0.000000 -0.866025
vn 0.866025 0.000000 -0.500000
vn 0.866026 0.000000 -0.500000
vn 0.000000 1.000000 0.000000
vn 0.000000 1.000000 0.000000
vn 0.000000 1.000000 -0.000000
vn 0.000000 1.000000 0.000000
vn 0.000000 1.000000 0.000000
vn 0.000000 1.000000 -0.000000
vn 0.000000 1.000000 0.000000
vn 0.000000 1.000000 -0.000000
vn 0.000000 1.000000 -0.000002
vn 0.000000 1.000000 0.000003
vn 0.000000 -1.000000 0.000000
vn 0.000000 -1.000000 -0.000000
vn 0.000000 -1.000000 0.000000
vn 0.000000 -1.000000 -0.000000
vn 0.000000 -1.000000 -0.000000
vn 0.000000 -1.000000 0.000000
vn 0.000000 -1.000000 0.000000
vn 0.000000 -1.000000 0.000001
vn 0.000000 -1.000000 0.000000
vn 0.000000 -1.000000 0.000000
s 1
g pCube2
f 21/31/45 22/40/46 23/33/47
f 23/33/47 22/40/46 24/46/48
s 2
f 32/35/49 28/44/50 37/53/51
f 37/53/51 28/44/50 33/42/52
f 22/40/53 40/43/54 24/46/55
f 24/46/55 40/43/54 34/41/56
f 27/34/57 29/32/58 23/33/59
f 23/33/59 29/32/58 21/31/60
f 27/34/57 26/38/61 29/32/58
f 29/32/58 26/38/61 30/39/62
f 26/37/61 25/36/63 30/51/62
f 30/51/62 25/36/63 31/52/64
f 25/36/63 28/44/50 31/52/64
f 31/52/64 28/44/50 32/35/49
f 33/42/52 36/57/65 37/53/51
f 37/53/51 36/57/65 38/58/66
f 36/57/65 35/55/67 38/58/66
f 38/58/66 35/55/67 39/60/68
f 35/56/67 34/41/56 39/59/68
f 39/59/68 34/41/56 40/43/54
s 5
f 23/33/69 24/46/70 27/45/71
f 27/45/71 24/46/70 26/37/72
f 26/37/72 24/46/70 25/36/73
f 25/36/73 24/46/70 28/44/74
f 24/46/70 34/47/75 28/44/74
f 34/47/75 35/55/76 28/44/74
f 35/55/76 36/57/77 28/44/74
f 33/42/78 28/44/74 36/57/77
s 6
f 22/48/79 21/49/80 40/54/81
f 40/54/81 21/49/80 39/60/82
f 39/60/82 21/49/80 38/58/83
f 38/58/83 21/49/80 37/53/84
f 21/49/80 29/50/85 37/53/84
f 29/50/85 30/51/86 37/53/84
f 30/51/86 31/52/87 37/53/84
f 31/52/87 32/35/88 37/53/84
