# This file uses centimeters as units for non-parametric coordinates.

mtllib branch1OBJ.mtl
g default
v -1.413767 -14.109216 1.689822
v 1.315261 -14.109216 1.840265
v -1.413767 14.109216 4.166094
v 1.315261 14.109216 4.316537
v -1.413767 14.109216 0.786449
v 1.315261 14.109216 0.662836
v -1.413767 -14.109216 -1.689822
v 1.315261 -14.109216 -1.813435
v 2.261876 14.109216 2.578830
v -2.116569 14.109216 2.578830
v -2.116569 -14.109216 0.102559
v 2.261876 -14.109216 0.102559
v -0.119245 14.109216 5.411678
v 0.018269 14.109216 2.578830
v -0.119245 14.109216 0.217949
v -0.119245 -14.109216 -2.258322
v -0.057213 -14.109216 0.102559
v -0.119245 -14.109216 2.935406
v 1.315261 8.371109 1.395257
v -0.119245 8.371109 2.490399
v -1.413767 8.371109 1.244815
v -2.116569 8.371109 -0.342449
v -1.413767 8.371109 -2.134830
v -0.119245 8.371109 -2.703330
v 1.315261 8.371109 -2.258443
v 2.261876 8.371109 -0.342449
v 1.315261 0.083681 0.650831
v -0.119245 0.083681 1.745971
v -1.413767 0.083681 0.500388
v -2.116569 0.083681 -1.086876
v -1.413767 0.083681 -2.879257
v -0.119245 0.083681 -3.447756
v 1.315261 0.083681 -3.002870
v 2.261876 0.083681 -1.086876
v 1.315261 -8.487457 2.384761
v -0.119245 -8.487457 3.479901
v -1.413767 -8.487457 2.234318
v -2.116569 -8.487457 0.647054
v -1.413767 -8.487457 -1.145327
v -0.119245 -8.487457 -1.713827
v 1.315261 -8.487457 -1.268940
v 2.261876 -8.487457 0.647054
v 1.315261 -1.709389 1.840265
v -0.119245 -1.709389 2.935406
v -1.413767 -1.709389 1.689822
v -2.116569 -1.709389 0.102559
v -1.413767 -1.709389 -1.689822
v -0.119245 -1.709389 -2.258322
v 1.315261 -1.709389 -1.813435
v 2.261876 -1.709389 0.102559
v 1.315261 3.388176 1.840265
v -0.119245 3.388176 2.935406
v -1.413767 3.388176 1.689822
v -2.116569 3.388176 0.102559
v -1.413767 3.388176 -1.689822
v -0.119245 3.388176 -2.258322
v 1.315261 3.388176 -1.813435
v 2.261876 3.388176 0.102559
v 1.315261 9.836664 1.840265
v -0.119245 9.836664 2.935406
v -1.413767 9.836664 1.689822
v -2.116569 9.836665 0.102559
v -1.413767 9.836665 -1.689822
v -0.119245 9.836665 -2.258322
v 1.315261 9.836665 -1.813435
v 2.261876 9.836664 0.102559
v 1.315261 -9.763814 2.151993
v -0.119245 -9.763814 3.247134
v -1.413767 -9.763814 2.001551
v -2.116569 -9.763814 0.414287
v -1.413767 -9.763814 -1.378094
v -0.119245 -9.763814 -1.946594
v 1.315261 -9.763814 -1.501707
v 2.261876 -9.763814 0.414287
v 1.315261 6.909587 -1.813435
v -0.119245 6.909587 -2.258322
v -1.413767 6.909587 -1.689823
v -2.116569 6.909587 0.102559
v -1.413767 6.909587 1.689822
v -0.119245 6.909587 2.935406
v 1.315261 6.909587 1.840265
v 2.261876 6.909587 0.102559
v 1.315261 5.078402 -1.282772
v -0.119245 5.078402 -1.727659
v -1.413767 5.078402 -1.159159
v -2.116569 5.078402 0.633222
v -1.413767 5.078402 2.220485
v -0.119245 5.078402 3.466069
v 1.315261 5.078402 2.370928
v 2.261876 5.078402 0.633222
v 1.315261 11.624085 -0.777488
v -0.119245 11.624085 -1.222375
v -1.413767 11.624085 -0.653875
v -2.116569 11.624085 1.138506
v -1.413767 11.624085 2.725770
v -0.119245 11.624085 3.971354
v 1.315261 11.624085 2.876213
v 2.261876 11.624085 1.138506
v 1.315261 13.058263 0.053728
v -0.119245 13.058263 -0.391159
v -1.413767 13.058263 0.177341
v -2.116569 13.058263 1.969722
v -1.413767 13.058263 3.556986
v -0.119245 13.058263 4.802569
v 1.315261 13.058263 3.707429
v 2.261876 13.058263 1.969722
v 1.315261 -3.389840 -1.813435
v -0.119245 -3.389840 -2.258322
v -1.413767 -3.389840 -1.689822
v -2.116569 -3.389840 0.102559
v -1.413767 -3.389840 1.689822
v -0.119245 -3.389840 2.935406
v 1.315261 -3.389840 1.840265
v 2.261876 -3.389840 0.102559
v 1.315261 -5.420724 -1.337604
v -0.119245 -5.420724 -1.782490
v -1.413767 -5.420724 -1.213991
v -2.116569 -5.420724 0.578390
v -1.413767 -5.420724 2.165654
v -0.119245 -5.420724 3.411238
v 1.315261 -5.420724 2.316096
v 2.261876 -5.420724 0.578390
v 1.315261 -7.105428 -1.335771
v -0.119245 -7.105428 -1.780658
v -1.413767 -7.105428 -1.212158
v -2.116569 -7.105428 0.580223
v -1.413767 -7.105428 2.167487
v -0.119245 -7.105428 3.413070
v 1.315261 -7.105428 2.317930
v 2.261876 -7.105428 0.580223
v 1.315261 -11.595716 -1.813435
v -0.119245 -11.595716 -2.258322
v -1.413767 -11.595716 -1.689822
v -2.116569 -11.595716 0.102559
v -1.413767 -11.595716 1.689822
v -0.119245 -11.595716 2.935406
v 1.315261 -11.595716 1.840265
v 2.261876 -11.595716 0.102559
v 1.315261 -12.992195 -1.813435
v -0.119245 -12.992195 -2.258322
v -1.413767 -12.992195 -1.689822
v -2.116569 -12.992195 0.102559
v -1.413767 -12.992195 1.689822
v -0.119245 -12.992195 2.935406
v 1.315261 -12.992195 1.840265
v 2.261876 -12.992195 0.102559
v 1.315261 1.806511 -2.670865
v -0.119245 1.806511 -3.115752
v -1.413767 1.806511 -2.547252
v -2.116569 1.806511 -0.754871
v -1.413767 1.806511 0.832393
v -0.119245 1.806511 2.077976
v 1.315261 1.806511 0.982835
v 2.261876 1.806511 -0.754871
vt 0.375000 0.000000
vt 0.625000 0.000000
vt 0.375000 0.250000
vt 0.625000 0.250000
vt 0.375000 0.500000
vt 0.625000 0.500000
vt 0.375000 0.750000
vt 0.625000 0.750000
vt 0.375000 1.000000
vt 0.625000 1.000000
vt 0.875000 0.000000
vt 0.875000 0.250000
vt 0.125000 0.000000
vt 0.125000 0.250000
vt 0.625000 0.369323
vt 0.744323 0.250000
vt 0.255677 0.250000
vt 0.375000 0.369323
vt 0.255677 0.000000
vt 0.375000 0.880677
vt 0.625000 0.880677
vt 0.744323 0.000000
vt 0.492076 0.250000
vt 0.492076 0.369323
vt 0.492076 0.500000
vt 0.492076 0.750000
vt 0.492076 0.880677
vt 0.492076 0.000000
vt 0.492076 1.000000
vt 0.625000 0.203026
vt 0.492076 0.203026
vt 0.375000 0.203026
vt 0.255677 0.203026
vt 0.125000 0.203026
vt 0.375000 0.546974
vt 0.492076 0.546974
vt 0.625000 0.546974
vt 0.875000 0.203026
vt 0.744323 0.203026
vt 0.625000 0.131336
vt 0.492076 0.131336
vt 0.375000 0.131336
vt 0.255677 0.131336
vt 0.125000 0.131336
vt 0.375000 0.618664
vt 0.492076 0.618664
vt 0.625000 0.618664
vt 0.875000 0.131336
vt 0.744323 0.131336
vt 0.625000 0.054622
vt 0.492076 0.054622
vt 0.375000 0.054622
vt 0.255677 0.054622
vt 0.125000 0.054622
vt 0.375000 0.695378
vt 0.492076 0.695378
vt 0.625000 0.695378
vt 0.875000 0.054622
vt 0.744323 0.054622
vt 0.625000 0.114586
vt 0.492076 0.114586
vt 0.375000 0.114586
vt 0.255677 0.114586
vt 0.125000 0.114586
vt 0.375000 0.635414
vt 0.492076 0.635414
vt 0.625000 0.635414
vt 0.875000 0.114586
vt 0.744323 0.114586
vt 0.625000 0.150714
vt 0.492076 0.150714
vt 0.375000 0.150714
vt 0.255677 0.150714
vt 0.125000 0.150714
vt 0.375000 0.599286
vt 0.492076 0.599286
vt 0.625000 0.599286
vt 0.875000 0.150714
vt 0.744323 0.150714
vt 0.625000 0.212148
vt 0.492076 0.212148
vt 0.375000 0.212148
vt 0.255677 0.212148
vt 0.125000 0.212148
vt 0.375000 0.537853
vt 0.492076 0.537853
vt 0.625000 0.537853
vt 0.875000 0.212148
vt 0.744323 0.212148
vt 0.625000 0.044107
vt 0.492076 0.044107
vt 0.375000 0.044107
vt 0.255677 0.044107
vt 0.125000 0.044107
vt 0.375000 0.705893
vt 0.492076 0.705893
vt 0.625000 0.705893
vt 0.875000 0.044107
vt 0.744323 0.044107
vt 0.625000 0.563785
vt 0.875000 0.186215
vt 0.492076 0.563785
vt 0.125000 0.186215
vt 0.375000 0.563785
vt 0.255677 0.186215
vt 0.375000 0.186215
vt 0.492076 0.186215
vt 0.625000 0.186215
vt 0.744323 0.186215
vt 0.625000 0.583565
vt 0.875000 0.166435
vt 0.492076 0.583565
vt 0.125000 0.166435
vt 0.375000 0.583565
vt 0.255677 0.166435
vt 0.375000 0.166435
vt 0.492076 0.166435
vt 0.625000 0.166435
vt 0.744323 0.166435
vt 0.625000 0.522017
vt 0.875000 0.227983
vt 0.492076 0.522017
vt 0.125000 0.227983
vt 0.375000 0.522017
vt 0.255677 0.227983
vt 0.375000 0.227983
vt 0.492076 0.227983
vt 0.625000 0.227983
vt 0.744323 0.227983
vt 0.625000 0.509311
vt 0.875000 0.240689
vt 0.492076 0.509311
vt 0.125000 0.240689
vt 0.375000 0.509311
vt 0.255677 0.240689
vt 0.375000 0.240689
vt 0.492076 0.240689
vt 0.625000 0.240689
vt 0.744323 0.240689
vt 0.625000 0.655032
vt 0.875000 0.094968
vt 0.492076 0.655032
vt 0.125000 0.094968
vt 0.375000 0.655032
vt 0.255677 0.094968
vt 0.375000 0.094968
vt 0.492076 0.094968
vt 0.625000 0.094968
vt 0.744323 0.094968
vt 0.625000 0.673025
vt 0.875000 0.076975
vt 0.492076 0.673025
vt 0.125000 0.076975
vt 0.375000 0.673025
vt 0.255677 0.076975
vt 0.375000 0.076975
vt 0.492076 0.076975
vt 0.625000 0.076975
vt 0.744323 0.076975
vt 0.625000 0.687950
vt 0.875000 0.062050
vt 0.492076 0.687950
vt 0.125000 0.062050
vt 0.375000 0.687950
vt 0.255677 0.062050
vt 0.375000 0.062050
vt 0.492076 0.062050
vt 0.625000 0.062050
vt 0.744323 0.062050
vt 0.625000 0.723569
vt 0.875000 0.026431
vt 0.492076 0.723569
vt 0.125000 0.026431
vt 0.375000 0.723569
vt 0.255677 0.026431
vt 0.375000 0.026431
vt 0.492076 0.026431
vt 0.625000 0.026431
vt 0.744323 0.026431
vt 0.625000 0.740104
vt 0.875000 0.009896
vt 0.492076 0.740104
vt 0.125000 0.009896
vt 0.375000 0.740104
vt 0.255677 0.009896
vt 0.375000 0.009896
vt 0.492076 0.009896
vt 0.625000 0.009896
vt 0.744323 0.009896
vt 0.625000 0.613255
vt 0.875000 0.136745
vt 0.492076 0.613255
vt 0.125000 0.136745
vt 0.375000 0.613255
vt 0.255677 0.136745
vt 0.375000 0.136745
vt 0.492076 0.136745
vt 0.625000 0.136745
vt 0.744323 0.136745
vn -0.691736 -0.068284 0.718914
vn -0.056028 -0.097340 0.993673
vn -0.053885 -0.172499 0.983535
vn -0.687910 -0.125080 0.714937
vn 0.000000 1.000000 0.000000
vn 0.000000 1.000000 0.000000
vn 0.000000 1.000000 0.000000
vn 0.000000 1.000000 0.000000
vn -0.397011 0.158478 -0.904028
vn -0.044724 0.172276 -0.984033
vn -0.044457 0.095294 -0.994456
vn -0.400503 0.088824 -0.911980
vn 0.000000 -1.000000 0.000000
vn 0.000000 -1.000000 -0.000000
vn 0.000000 -1.000000 0.000000
vn 0.000000 -1.000000 0.000000
vn 0.877181 -0.047101 0.477844
vn 0.999888 0.002506 -0.014724
vn 0.999992 -0.000522 0.003888
vn 0.875078 -0.083652 0.476698
vn -0.999920 0.002118 -0.012447
vn -0.913648 -0.039919 0.404542
vn -0.912077 -0.070875 0.403846
vn -0.999994 -0.000441 0.003289
vn 0.000000 1.000000 0.000000
vn 0.000000 1.000000 0.000000
vn -0.930439 0.034387 -0.364830
vn -0.929099 0.063700 -0.364305
vn 0.000000 -1.000000 0.000000
vn 0.000000 -1.000000 -0.000001
vn 0.895765 0.041765 -0.442561
vn 0.893870 0.077226 -0.441625
vn 0.000000 1.000000 0.000000
vn 0.000000 1.000000 0.000000
vn 0.000000 1.000000 0.000000
vn 0.292149 0.165104 -0.942014
vn 0.294947 0.092413 -0.951034
vn 0.000000 -1.000000 -0.000001
vn 0.000000 -1.000000 -0.000000
vn 0.000000 -1.000000 0.000000
vn 0.605078 -0.075462 0.792582
vn 0.601023 -0.137760 0.787270
vn -0.051901 -0.422309 0.904965
vn -0.058809 0.000023 0.998269
vn 0.606809 -0.000019 0.794848
vn 0.572223 -0.332783 0.749544
vn -0.693355 -0.000021 0.720596
vn -0.660651 -0.303498 0.686607
vn -0.999250 -0.000016 -0.038720
vn -0.914377 0.000014 0.404864
vn -0.898096 -0.187865 0.397656
vn -0.999598 0.017682 -0.022187
vn -0.930989 0.000016 -0.365046
vn -0.919434 0.157064 -0.360515
vn -0.370311 0.389658 -0.843230
vn -0.040328 0.409407 -0.911460
vn -0.043369 0.000013 -0.999059
vn -0.402093 -0.000013 -0.915599
vn 0.296214 -0.000010 -0.955121
vn 0.271169 0.402439 -0.874363
vn 0.999438 0.020891 -0.026202
vn 0.998950 -0.000019 -0.045819
vn 0.896547 0.000018 -0.442948
vn 0.880231 0.189917 -0.434886
vn 0.878156 0.000016 0.478375
vn 0.856630 -0.220055 0.466649
vn -0.049684 -0.382439 0.922644
vn -0.053432 -0.348269 0.935871
vn 0.584851 -0.266576 0.766085
vn 0.573782 -0.325408 0.751587
vn -0.672770 -0.241860 0.699203
vn -0.661696 -0.298723 0.687694
vn -0.999695 0.015115 -0.019555
vn -0.903835 -0.151410 0.400197
vn -0.902084 -0.163424 0.399421
vn -0.999862 -0.011341 0.012150
vn -0.923933 0.122892 -0.362279
vn -0.919268 0.158182 -0.360450
vn -0.375470 0.357825 -0.854976
vn -0.042099 0.393946 -0.918169
vn -0.041797 0.332975 -0.942009
vn -0.381123 0.318718 -0.867850
vn 0.279681 0.329419 -0.901810
vn 0.274910 0.372383 -0.886429
vn 0.999808 -0.013385 0.014328
vn 0.999574 0.017862 -0.023098
vn 0.886532 0.149056 -0.437999
vn 0.880127 0.190515 -0.434835
vn 0.864185 -0.177669 0.470764
vn 0.861739 -0.192456 0.469432
vn -0.047992 0.304410 0.951332
vn -0.056214 0.129555 0.989978
vn 0.603806 0.099357 0.790915
vn 0.583302 0.275635 0.764057
vn -0.690551 0.089841 0.717682
vn -0.670712 0.253469 0.697064
vn -0.999857 -0.003858 -0.016468
vn -0.913069 0.053453 0.404286
vn -0.907416 0.123153 0.401782
vn -0.998689 0.028294 0.042654
vn -0.930041 -0.045135 -0.364674
vn -0.922502 -0.134723 -0.361718
vn -0.384952 -0.288858 -0.876569
vn -0.044469 -0.332297 -0.942126
vn -0.044114 -0.125677 -0.991090
vn -0.399283 -0.118016 -0.909200
vn 0.293978 -0.122635 -0.947912
vn 0.282269 -0.303219 -0.910155
vn 0.998179 0.033343 0.050264
vn 0.999800 -0.004564 -0.019480
vn 0.895198 -0.054841 -0.442281
vn 0.884678 -0.162184 -0.437083
vn 0.876410 0.063026 0.477424
vn 0.868737 0.146067 0.473244
vn -0.058216 0.252325 0.965890
vn 0.597332 0.176041 0.782435
vn -0.684689 0.157609 0.711590
vn -0.908977 0.108521 0.402473
vn -0.998253 -0.025148 -0.053466
vn -0.928278 -0.076266 -0.363983
vn -0.391605 -0.226897 -0.891719
vn -0.041510 -0.227598 -0.972870
vn 0.288011 -0.233710 -0.928671
vn 0.997557 -0.029720 -0.063215
vn 0.892637 -0.093297 -0.441016
vn 0.871006 0.127342 0.474480
vn -0.053116 0.283325 0.957552
vn 0.590606 0.229544 0.773624
vn -0.678023 0.209130 0.704663
vn -0.999994 -0.000718 -0.003355
vn -0.907895 0.118854 0.401995
vn -0.925566 -0.107784 -0.362920
vn -0.043235 -0.284030 -0.957840
vn -0.388087 -0.261629 -0.883707
vn 0.285033 -0.272161 -0.919067
vn 0.999992 -0.000849 -0.003968
vn 0.888891 -0.130413 -0.439165
vn 0.869500 0.140059 0.473660
vn -0.040379 -0.501035 0.864484
vn -0.046630 -0.500899 0.864249
vn 0.551139 -0.418412 0.721926
vn 0.551139 -0.418412 0.721926
vn -0.639798 -0.385381 0.664936
vn -0.639798 -0.385381 0.664936
vn -0.999916 -0.006492 0.011201
vn -0.890198 -0.228445 0.394158
vn -0.890198 -0.228445 0.394158
vn -0.996417 -0.042410 0.073174
vn -0.910827 0.206990 -0.357140
vn -0.910827 0.206990 -0.357140
vn -0.355181 0.468749 -0.808778
vn -0.041915 0.501004 -0.864430
vn -0.039605 0.501051 -0.864511
vn -0.355181 0.468749 -0.808777
vn 0.259156 0.484313 -0.835631
vn 0.259157 0.484313 -0.835631
vn 0.995036 -0.049902 0.086100
vn 0.999883 -0.007665 0.013225
vn 0.868388 0.248659 -0.429035
vn 0.868388 0.248659 -0.429035
vn 0.846233 -0.267176 0.460985
vn 0.846233 -0.267176 0.460985
vn -0.053420 -0.060637 0.996729
vn 0.606029 -0.050666 0.793827
vn -0.692617 -0.046107 0.719830
vn -0.914107 -0.024273 0.404745
vn -0.999892 -0.001909 0.014600
vn -0.930729 0.023634 -0.364944
vn -0.401457 0.056210 -0.914151
vn -0.045831 0.063006 -0.996960
vn 0.295701 0.058871 -0.953465
vn 0.999849 -0.002256 0.017256
vn 0.896180 0.028624 -0.442766
vn 0.877793 -0.028740 0.478177
vn 0.296214 -0.000299 -0.955121
vn -0.047001 0.000348 -0.998895
vn -0.402093 -0.000398 -0.915599
vn -0.930989 0.000372 -0.365046
vn -0.999243 -0.000461 0.038912
vn -0.914377 0.000485 0.404864
vn -0.693355 -0.000519 0.720596
vn -0.050828 0.000753 0.998707
vn 0.606809 -0.000495 0.794848
vn 0.878156 0.000540 0.478375
vn 0.998945 -0.000544 0.045929
vn 0.896547 0.000431 -0.442948
vn -0.039477 0.501053 -0.864516
vn 0.259156 0.484313 -0.835631
vn -0.355181 0.468749 -0.808777
vn -0.999958 -0.004614 0.007960
vn -0.910827 0.206990 -0.357140
vn -0.890198 -0.228445 0.394158
vn -0.046926 -0.500892 0.864237
vn -0.639798 -0.385381 0.664936
vn 0.551139 -0.418412 0.721927
vn 0.999941 -0.005448 0.009400
vn 0.846233 -0.267176 0.460985
vn 0.868388 0.248659 -0.429035
vn 0.294046 -0.120761 -0.948132
vn -0.045625 -0.128708 -0.990632
vn -0.399405 -0.115427 -0.909479
vn -0.929900 -0.048370 -0.364619
vn -0.999857 0.003876 0.016480
vn -0.913222 0.050231 0.404353
vn -0.690266 0.094281 0.717387
vn -0.052901 0.124603 0.990795
vn 0.603545 0.103584 0.790572
vn 0.876603 0.059434 0.477529
vn 0.999800 0.004580 0.019474
vn 0.895008 -0.058573 -0.442187
vn 0.296146 -0.021428 -0.954902
vn -0.045109 -0.022302 -0.998733
vn -0.402008 -0.020559 -0.915406
vn -0.930959 -0.008106 -0.365034
vn -0.999996 -0.000136 -0.002745
vn -0.914339 0.009136 0.404847
vn -0.693265 0.016041 0.720504
vn -0.055309 0.022466 0.998217
vn 0.606714 0.017708 0.794723
vn 0.878105 0.010790 0.478347
vn 0.999995 -0.000161 -0.003246
vn 0.896504 -0.009840 -0.442926
vn -0.045249 0.000000 -0.998976
vn 0.296214 0.000000 -0.955121
vn -0.402093 0.000000 -0.915599
vn -0.930990 0.000000 -0.365046
vn -1.000000 0.000000 0.000000
vn -0.914377 0.000000 0.404864
vn -0.693355 0.000000 0.720596
vn -0.055043 0.000000 0.998484
vn 0.606809 0.000000 0.794848
vn 0.878156 0.000000 0.478375
vn 1.000000 0.000000 0.000000
vn 0.896547 0.000000 -0.442948
vn -0.045249 0.000000 -0.998976
vn 0.296215 0.000000 -0.955121
vn -0.402093 0.000000 -0.915599
vn -0.930990 0.000000 -0.365046
vn -1.000000 0.000000 0.000000
vn -0.914377 0.000000 0.404864
vn -0.693355 0.000000 0.720596
vn -0.055043 0.000000 0.998484
vn 0.606809 0.000000 0.794848
vn 0.878156 0.000000 0.478375
vn 1.000000 0.000000 0.000000
vn 0.896547 0.000000 -0.442948
s 1
g pCube1
usemtl initialShadingGroup
f 135/176/1 136/177/2 68/91/3 69/92/4
s 2
f 3/3/5 13/23/6 14/24/7 10/18/8
s 3
f 71/95/9 72/96/10 132/172/11 133/174/12
s 4
f 11/20/13 17/27/14 18/29/15 1/9/16
s 5
f 137/178/17 138/179/18 74/99/19 67/90/20
s 6
f 134/175/21 135/176/22 69/92/23 70/93/24
s 2
f 10/18/8 14/24/7 15/25/25 5/5/26
s 6
f 133/173/27 134/175/21 70/93/24 71/94/28
s 4
f 7/7/29 16/26/30 17/27/14 11/20/13
s 5
f 74/99/19 138/179/18 131/171/31 73/98/32
s 2
f 13/23/6 4/4/33 9/15/34 14/24/7
f 15/25/25 14/24/7 9/15/34 6/6/35
s 3
f 132/172/11 72/96/10 73/97/36 131/170/37
s 4
f 17/27/14 16/26/30 8/8/38 12/21/39
f 18/29/15 17/27/14 12/21/39 2/10/40
s 1
f 68/91/3 136/177/2 137/178/41 67/90/42
f 60/81/43 20/31/44 19/30/45 59/80/46
f 21/32/47 20/31/44 60/81/43 61/82/48
s 6
f 22/33/49 21/32/50 61/82/51 62/83/52
f 23/34/53 22/33/49 62/83/52 63/84/54
s 3
f 63/85/55 64/86/56 24/36/57 23/35/58
f 25/37/59 24/36/57 64/86/56 65/87/60
s 5
f 66/89/61 26/39/62 25/38/63 65/88/64
f 19/30/65 26/39/62 66/89/61 59/80/66
s 1
f 52/71/67 152/197/68 153/198/69 51/70/70
f 151/196/71 152/197/68 52/71/67 53/72/72
s 6
f 150/195/73 151/196/74 53/72/75 54/73/76
f 149/193/77 150/195/73 54/73/76 55/74/78
s 3
f 55/75/79 56/76/80 148/192/81 149/194/82
f 147/190/83 148/192/81 56/76/80 57/77/84
s 5
f 58/79/85 154/199/86 147/191/87 57/78/88
f 153/198/89 154/199/86 58/79/85 51/70/90
s 1
f 44/61/91 112/147/92 113/148/93 43/60/94
f 111/146/95 112/147/92 44/61/91 45/62/96
s 6
f 110/145/97 111/146/98 45/62/99 46/63/100
f 109/143/101 110/145/97 46/63/100 47/64/102
s 3
f 47/65/103 48/66/104 108/142/105 109/144/106
f 107/140/107 108/142/105 48/66/104 49/67/108
s 5
f 50/69/109 114/149/110 107/141/111 49/68/112
f 113/148/113 114/149/110 50/69/109 43/60/114
s 1
f 28/41/115 44/61/91 43/60/94 27/40/116
f 45/62/96 44/61/91 28/41/115 29/42/117
s 6
f 46/63/100 45/62/99 29/42/118 30/43/119
f 47/64/102 46/63/100 30/43/119 31/44/120
s 3
f 31/45/121 32/46/122 48/66/104 47/65/103
f 49/67/108 48/66/104 32/46/122 33/47/123
s 5
f 34/49/124 50/69/109 49/68/112 33/48/125
f 43/60/114 50/69/109 34/49/124 27/40/126
s 1
f 20/31/44 80/107/127 81/108/128 19/30/45
f 79/106/129 80/107/127 20/31/44 21/32/47
s 6
f 78/105/130 79/106/131 21/32/50 22/33/49
f 77/103/132 78/105/130 22/33/49 23/34/53
s 3
f 23/35/58 24/36/57 76/102/133 77/104/134
f 75/100/135 76/102/133 24/36/57 25/37/59
s 5
f 26/39/62 82/109/136 75/101/137 25/38/63
f 81/108/138 82/109/136 26/39/62 19/30/65
s 1
f 13/23/139 104/137/140 105/138/141 4/4/142
f 103/136/143 104/137/140 13/23/139 3/3/144
s 6
f 102/135/145 103/136/146 3/3/147 10/17/148
f 101/133/149 102/135/145 10/17/148 5/14/150
s 3
f 5/5/151 15/25/152 100/132/153 101/134/154
f 99/130/155 100/132/153 15/25/152 6/6/156
s 5
f 9/16/157 106/139/158 99/131/159 6/12/160
f 105/138/161 106/139/158 9/16/157 4/4/162
s 1
f 36/51/163 68/91/3 67/90/42 35/50/164
f 69/92/4 68/91/3 36/51/163 37/52/165
s 6
f 70/93/24 69/92/23 37/52/166 38/53/167
f 71/94/28 70/93/24 38/53/167 39/54/168
s 3
f 39/55/169 40/56/170 72/96/10 71/95/9
f 73/97/36 72/96/10 40/56/170 41/57/171
s 5
f 42/59/172 74/99/19 73/98/32 41/58/173
f 67/90/20 74/99/19 42/59/172 35/50/174
s 3
f 83/110/175 84/112/176 76/102/133 75/100/135
f 77/104/134 76/102/133 84/112/176 85/114/177
s 6
f 85/113/178 86/115/179 78/105/130 77/103/132
f 86/115/179 87/116/180 79/106/131 78/105/130
s 1
f 87/116/181 88/117/182 80/107/127 79/106/129
f 81/108/128 80/107/127 88/117/182 89/118/183
s 5
f 89/118/184 90/119/185 82/109/136 81/108/138
f 75/101/137 82/109/136 90/119/185 83/111/186
s 3
f 57/77/84 56/76/80 84/112/176 83/110/175
f 85/114/177 84/112/176 56/76/80 55/75/79
s 6
f 55/74/78 54/73/76 86/115/179 85/113/178
f 54/73/76 53/72/75 87/116/180 86/115/179
s 1
f 53/72/72 52/71/67 88/117/182 87/116/181
f 89/118/183 88/117/182 52/71/67 51/70/70
s 5
f 51/70/90 58/79/85 90/119/185 89/118/184
f 83/111/186 90/119/185 58/79/85 57/78/88
s 3
f 65/87/60 64/86/56 92/122/187 91/120/188
f 93/124/189 92/122/187 64/86/56 63/85/55
s 6
f 63/84/54 62/83/52 94/125/190 93/123/191
f 62/83/52 61/82/51 95/126/192 94/125/190
s 1
f 61/82/48 60/81/43 96/127/193 95/126/194
f 97/128/195 96/127/193 60/81/43 59/80/46
s 5
f 59/80/66 66/89/61 98/129/196 97/128/197
f 91/121/198 98/129/196 66/89/61 65/88/64
s 3
f 91/120/188 92/122/187 100/132/153 99/130/155
f 101/134/154 100/132/153 92/122/187 93/124/189
s 6
f 93/123/191 94/125/190 102/135/145 101/133/149
f 94/125/190 95/126/192 103/136/146 102/135/145
s 1
f 95/126/194 96/127/193 104/137/140 103/136/143
f 105/138/141 104/137/140 96/127/193 97/128/195
s 5
f 97/128/197 98/129/196 106/139/158 105/138/161
f 99/131/159 106/139/158 98/129/196 91/121/198
s 3
f 115/150/199 116/152/200 108/142/105 107/140/107
f 109/144/106 108/142/105 116/152/200 117/154/201
s 6
f 117/153/202 118/155/203 110/145/97 109/143/101
f 118/155/203 119/156/204 111/146/98 110/145/97
s 1
f 119/156/205 120/157/206 112/147/92 111/146/95
f 113/148/93 112/147/92 120/157/206 121/158/207
s 5
f 121/158/208 122/159/209 114/149/110 113/148/113
f 107/141/111 114/149/110 122/159/209 115/151/210
s 3
f 123/160/211 124/162/212 116/152/200 115/150/199
f 117/154/201 116/152/200 124/162/212 125/164/213
s 6
f 125/163/214 126/165/215 118/155/203 117/153/202
f 126/165/215 127/166/216 119/156/204 118/155/203
s 1
f 127/166/217 128/167/218 120/157/206 119/156/205
f 121/158/207 120/157/206 128/167/218 129/168/219
s 5
f 129/168/220 130/169/221 122/159/209 121/158/208
f 115/151/210 122/159/209 130/169/221 123/161/222
s 3
f 41/57/171 40/56/170 124/162/212 123/160/211
f 125/164/213 124/162/212 40/56/170 39/55/169
s 6
f 39/54/168 38/53/167 126/165/215 125/163/214
f 38/53/167 37/52/166 127/166/216 126/165/215
s 1
f 37/52/165 36/51/163 128/167/218 127/166/217
f 129/168/219 128/167/218 36/51/163 35/50/164
s 5
f 35/50/174 42/59/172 130/169/221 129/168/220
f 123/161/222 130/169/221 42/59/172 41/58/173
s 3
f 140/182/223 132/172/11 131/170/37 139/180/224
f 133/174/12 132/172/11 140/182/223 141/184/225
s 6
f 141/183/226 142/185/227 134/175/21 133/173/27
f 142/185/227 143/186/228 135/176/22 134/175/21
s 1
f 143/186/229 144/187/230 136/177/2 135/176/1
f 137/178/41 136/177/2 144/187/230 145/188/231
s 5
f 145/188/232 146/189/233 138/179/18 137/178/17
f 131/171/31 138/179/18 146/189/233 139/181/234
s 3
f 16/26/235 140/182/223 139/180/224 8/8/236
f 141/184/225 140/182/223 16/26/235 7/7/237
s 6
f 7/13/238 11/19/239 142/185/227 141/183/226
f 11/19/239 1/1/240 143/186/228 142/185/227
s 1
f 1/1/241 18/28/242 144/187/230 143/186/229
f 145/188/231 144/187/230 18/28/242 2/2/243
s 5
f 2/2/244 12/22/245 146/189/233 145/188/232
f 139/181/234 146/189/233 12/22/245 8/11/246
s 3
f 33/47/123 32/46/122 148/192/81 147/190/83
f 149/194/82 148/192/81 32/46/122 31/45/121
s 6
f 31/44/120 30/43/119 150/195/73 149/193/77
f 30/43/119 29/42/118 151/196/74 150/195/73
s 1
f 29/42/117 28/41/115 152/197/68 151/196/71
f 153/198/69 152/197/68 28/41/115 27/40/116
s 5
f 27/40/126 34/49/124 154/199/86 153/198/89
f 147/191/87 154/199/86 34/49/124 33/48/125
