# This file uses centimeters as units for non-parametric coordinates.

mtllib frame.mtl
g default
v -77.118092 -6.007585 61.596097
v 77.118092 -6.007585 61.596097
v -77.118092 -6.007585 77.019716
v 77.118092 -6.007585 77.019716
v -77.118092 109.669553 77.019716
v 77.118092 109.669553 77.019716
v -77.118092 109.669553 61.596097
v 77.118092 109.669553 61.596097
v -77.118092 99.599442 77.019716
v -77.118092 99.599442 61.596097
v 77.118092 99.599442 61.596097
v 77.118092 99.599442 77.019716
v -77.118092 5.135431 77.019716
v -77.118092 5.135431 61.596097
v 77.118092 5.135431 61.596097
v 77.118092 5.135431 77.019716
v 61.540649 -6.007585 77.019716
v 61.540649 -6.007585 61.596097
v 61.540649 5.135431 61.596097
v 61.540649 99.599442 61.596097
v 61.540649 109.669553 61.596097
v 61.540649 109.669553 77.019716
v 61.540649 99.599442 70.174697
v 61.540649 5.135431 70.174698
v -61.139509 5.135431 70.174698
v -61.139509 -6.007585 77.019716
v -61.139509 -6.007585 61.596097
v -61.139509 5.135431 61.596097
v -61.139509 99.599442 61.596095
v -61.139509 109.669553 61.596097
v -61.139509 109.669553 77.019716
v -61.139509 99.599442 70.174697
v 66.216670 99.599442 77.019716
v 66.216670 5.135427 77.019716
v 66.216670 -6.007585 77.019716
v 66.216670 -6.007585 61.596097
v 66.216670 5.135427 61.596097
v 66.216670 99.599442 61.596097
v 66.216670 109.669553 61.596097
v 66.216670 109.669553 77.019716
v 77.118092 103.570208 77.019716
v 66.216675 103.570208 77.019716
v 61.540649 103.570208 77.019716
v -61.139509 103.570208 77.019716
v -77.118092 103.570208 77.019716
v -77.118092 103.570208 61.596097
v -61.139509 103.570208 61.596096
v 61.540649 103.570208 61.596097
v 66.216675 103.570208 61.596098
v 77.118092 103.570208 61.596097
v 77.118092 0.544934 77.019716
v 66.216675 0.544930 77.019716
v 61.540649 0.544934 77.019716
v -61.139509 0.544934 77.019716
v -77.118092 0.544934 77.019716
v -77.118092 0.544934 61.596097
v -61.139509 0.544934 61.596097
v 61.540649 0.544934 61.596097
v 66.216675 0.544930 61.596097
v 77.118092 0.544934 61.596097
v -69.016255 5.135431 77.019716
v -69.016255 0.544934 77.019716
v -69.016255 -6.007585 77.019716
v -69.016255 -6.007585 61.596097
v -69.016255 0.544934 61.596097
v -69.016255 5.135431 61.596097
v -69.016255 99.599442 61.596096
v -69.016255 103.570208 61.596097
v -69.016255 109.669553 61.596097
v -69.016255 109.669553 77.019716
v -69.016255 103.570208 77.019716
v -69.016255 99.599442 77.019716
vt 0.375000 0.000000
vt 0.625000 0.000000
vt 0.375000 0.250000
vt 0.625000 0.250000
vt 0.375000 0.500000
vt 0.625000 0.500000
vt 0.375000 0.750000
vt 0.625000 0.750000
vt 0.375000 1.000000
vt 0.625000 1.000000
vt 0.875000 0.000000
vt 0.875000 0.250000
vt 0.125000 0.000000
vt 0.125000 0.250000
vt 0.146763 0.250000
vt 0.375000 0.478237
vt 0.146763 0.000000
vt 0.375000 0.771763
vt 0.625000 0.771763
vt 0.853237 0.000000
vt 0.625000 0.478237
vt 0.853237 0.250000
vt 0.350918 0.250000
vt 0.375000 0.274082
vt 0.350918 0.000000
vt 0.375000 0.975918
vt 0.625000 0.975918
vt 0.649082 0.000000
vt 0.625000 0.274082
vt 0.649082 0.250000
vt 0.599751 0.250000
vt 0.599751 0.000000
vt 0.599751 1.000000
vt 0.599751 0.975918
vt 0.599751 0.771763
vt 0.599751 0.750000
vt 0.599751 0.500000
vt 0.599751 0.478237
vt 0.599751 0.274082
vt 0.400900 0.274082
vt 0.400900 0.250000
vt 0.400900 0.000000
vt 0.400900 1.000000
vt 0.400900 0.975918
vt 0.400900 0.771763
vt 0.400900 0.750000
vt 0.400900 0.500000
vt 0.400900 0.478237
vt 0.607330 0.478237
vt 0.607330 0.274082
vt 0.607330 0.250000
vt 0.607330 0.000000
vt 0.607330 1.000000
vt 0.607330 0.975918
vt 0.607330 0.771763
vt 0.607330 0.750000
vt 0.607330 0.500000
vt 0.625000 0.486818
vt 0.861818 0.250000
vt 0.607330 0.486818
vt 0.599751 0.486818
vt 0.400900 0.486818
vt 0.138182 0.250000
vt 0.375000 0.486818
vt 0.138182 0.000000
vt 0.375000 0.763182
vt 0.400900 0.763182
vt 0.599751 0.763182
vt 0.607330 0.763182
vt 0.625000 0.763182
vt 0.861818 0.000000
vt 0.625000 0.264161
vt 0.639161 0.250000
vt 0.607330 0.264161
vt 0.599751 0.264161
vt 0.400900 0.264161
vt 0.360839 0.250000
vt 0.375000 0.264161
vt 0.360839 0.000000
vt 0.375000 0.985839
vt 0.400900 0.985839
vt 0.599751 0.985839
vt 0.607330 0.985839
vt 0.625000 0.985839
vt 0.639161 0.000000
vt 0.388132 0.274082
vt 0.388132 0.264161
vt 0.388132 0.250000
vt 0.388132 0.000000
vt 0.388132 1.000000
vt 0.388132 0.985839
vt 0.388132 0.975918
vt 0.388132 0.771763
vt 0.388132 0.763182
vt 0.388132 0.750000
vt 0.388132 0.500000
vt 0.388132 0.486818
vt 0.388132 0.478237
vn 0.000000 -1.000000 0.000000
vn 0.000000 -1.000000 0.000000
vn 0.000000 -1.000000 0.000000
vn 0.000000 -1.000000 0.000000
vn 0.000000 0.000000 1.000000
vn 0.000000 0.000000 1.000000
vn -0.085868 -0.101119 0.991162
vn -0.395440 -0.009586 0.918442
vn 0.000000 1.000000 -0.000000
vn 0.000000 1.000000 -0.000000
vn 0.000000 1.000000 -0.000000
vn 0.000000 1.000000 -0.000000
vn 0.000000 0.000000 -1.000000
vn -0.000000 0.000000 -1.000000
vn -0.000000 -0.000000 -1.000000
vn -0.000000 0.000000 -1.000000
vn 1.000000 0.000000 0.000000
vn 1.000000 0.000000 0.000000
vn 1.000000 0.000000 0.000000
vn 1.000000 0.000000 0.000000
vn -1.000000 0.000000 0.000000
vn -1.000000 0.000000 0.000000
vn -1.000000 0.000000 0.000000
vn -1.000000 0.000000 0.000000
vn 0.000000 -0.000000 -1.000000
vn 0.000000 -0.000000 -1.000000
vn 0.000000 -0.000000 -1.000000
vn 0.000000 -0.000000 -1.000000
vn -1.000000 0.000000 0.000000
vn -1.000000 0.000000 0.000000
vn -1.000000 0.000000 0.000000
vn -1.000000 0.000000 0.000000
vn -0.089766 0.091438 0.991757
vn 0.000000 0.000000 1.000000
vn 0.000000 0.000000 1.000000
vn 0.000000 0.000000 1.000000
vn 1.000000 0.000000 0.000000
vn 1.000000 0.000000 0.000000
vn 1.000000 0.000000 0.000000
vn 1.000000 0.000000 0.000000
vn -0.394418 0.009530 0.918882
vn 0.000000 0.000000 1.000000
vn -1.000000 0.000000 0.000000
vn -1.000000 0.000000 0.000000
vn 0.000000 -0.000000 -1.000000
vn 0.000000 -0.000000 -1.000000
vn 1.000000 0.000000 0.000000
vn 1.000000 0.000000 0.000000
vn 0.009277 0.511791 0.859060
vn 0.000000 0.000000 1.000000
vn 0.000000 0.000000 1.000000
vn -0.009480 0.516367 0.856315
vn 0.000000 -1.000000 0.000000
vn 0.000000 -1.000000 0.000000
vn 0.000000 -1.000000 0.000000
vn 0.000000 -1.000000 0.000000
vn 0.000000 -0.000000 -1.000000
vn 0.000000 -0.000000 -1.000000
vn 0.000000 -0.000000 -1.000000
vn 0.000000 -0.000000 -1.000000
vn -0.000000 0.000000 -1.000000
vn 0.000000 0.000000 -1.000000
vn 0.000000 0.000000 -1.000000
vn 0.000000 0.000000 -1.000000
vn 0.000000 1.000000 -0.000000
vn 0.000000 1.000000 -0.000000
vn 0.000000 1.000000 -0.000000
vn 0.000000 1.000000 -0.000000
vn -0.458859 -0.595843 0.659105
vn -0.008814 -0.555019 0.831791
vn 0.008630 -0.550375 0.834873
vn 0.397833 -0.517167 0.757804
vn 0.086915 0.149136 0.984990
vn 0.000000 0.000000 1.000000
vn 0.000000 -1.000000 0.000000
vn 0.000000 -1.000000 0.000000
vn 0.000000 -0.000000 -1.000000
vn 0.000000 -0.000000 -1.000000
vn -0.000000 0.000000 -1.000000
vn -0.000000 -0.000000 -1.000000
vn -0.000000 -0.000000 -1.000000
vn -0.000000 0.000000 -1.000000
vn 0.000000 1.000000 -0.000000
vn 0.000000 1.000000 -0.000000
vn 0.083011 -0.164667 0.982850
vn 0.386986 -0.015802 0.921950
vn 0.385977 0.015710 0.922374
vn 0.384083 0.499166 0.776732
vn 0.000000 -1.000000 0.000000
vn 0.000000 -1.000000 0.000000
vn 0.000000 -1.000000 0.000000
vn 0.000000 -1.000000 0.000000
vn 1.000000 0.000000 0.000000
vn 1.000000 0.000000 0.000000
vn 1.000000 0.000000 0.000000
vn 1.000000 0.000000 0.000000
vn -1.000000 0.000000 0.000000
vn -1.000000 0.000000 0.000000
vn -1.000000 0.000000 0.000000
vn -1.000000 0.000000 0.000000
vn 0.000000 1.000000 -0.000000
vn 0.000000 1.000000 -0.000000
vn 0.000000 1.000000 -0.000000
vn 0.000000 1.000000 -0.000000
vn -0.442829 0.574886 0.688047
vn 0.000000 -0.000000 -1.000000
vn 0.000000 0.000000 1.000000
vn 0.000000 0.000000 1.000000
vn 0.000000 0.000000 1.000000
vn 0.000000 0.000000 1.000000
vn 0.000000 0.000000 1.000000
vn -1.000000 0.000000 0.000000
vn -1.000000 0.000000 0.000000
vn -0.000000 -0.000000 -1.000000
vn -0.000000 -0.000000 -1.000000
vn 0.000000 -0.000000 -1.000000
vn 0.000000 -0.000000 -1.000000
vn -0.000000 -0.000000 -1.000000
vn 1.000000 0.000000 0.000000
vn 1.000000 0.000000 0.000000
vn 0.000000 0.000000 1.000000
vn 0.000000 0.000000 1.000000
vn 0.000000 0.000000 1.000000
vn 0.000000 -1.000000 0.000000
vn 0.000000 -1.000000 0.000000
vn 0.000000 -0.000000 -1.000000
vn 0.000000 -0.000000 -1.000000
vn -0.000000 -0.000000 -1.000000
vn -0.000000 -0.000000 -1.000000
vn -0.000000 -0.000000 -1.000000
vn 0.000000 -0.000000 -1.000000
vn 0.000000 1.000000 -0.000000
vn 0.000000 1.000000 -0.000000
vn 0.000000 0.000000 1.000000
vn 0.000000 0.000000 1.000000
vn 0.000000 0.000000 1.000000
s 1
g pCube1
usemtl initialShadingGroup
f 4/4/1 35/51/2 36/52/3 2/2/4
s 2
f 12/21/5 41/58/6 42/60/7 33/49/8
s 3
f 8/8/9 39/56/10 40/57/11 6/6/12
s 4
f 38/55/13 49/69/14 50/70/15 11/19/16
s 5
f 11/20/17 50/71/18 41/59/19 12/22/20
s 6
f 45/63/21 46/65/22 10/17/23 9/15/24
s 4
f 2/10/25 36/53/26 59/83/27 60/84/28
s 6
f 1/1/29 3/3/30 55/77/31 56/79/32
s 2
f 52/74/33 35/51/34 4/4/35 51/72/36
s 5
f 60/85/37 51/73/38 4/4/39 2/2/40
s 2
f 12/21/5 33/49/8 34/50/41 16/29/42
s 6
f 9/15/24 10/17/23 14/25/43 13/23/44
s 4
f 15/27/45 37/54/46 38/55/13 11/19/16
s 5
f 16/30/47 15/28/48 11/20/17 12/22/20
s 2
f 54/76/49 26/41/50 17/31/51 53/75/52
s 1
f 27/42/53 18/32/54 17/31/55 26/41/56
s 4
f 58/82/57 18/33/58 27/43/59 57/81/60
f 29/45/61 47/67/62 48/68/63 20/35/64
s 3
f 31/47/65 22/37/66 21/36/67 30/46/68
s 2
f 23/38/69 43/61/70 44/62/71 32/48/72
f 26/41/50 54/76/49 62/87/73 63/88/74
s 1
f 27/42/53 26/41/56 63/88/75 64/89/76
s 4
f 65/91/77 57/81/60 27/43/59 64/90/78
f 67/93/79 29/45/61 28/44/80 66/92/81
f 67/93/79 68/94/82 47/67/62 29/45/61
s 3
f 31/47/65 30/46/68 69/95/83 70/96/84
s 2
f 44/62/71 71/97/85 72/98/86 32/48/72
f 72/98/86 61/86/87 25/40/88 32/48/72
s off
f 23/38/89 32/48/90 29/45/91 20/35/92
f 28/44/93 29/45/94 32/48/95 25/40/96
f 23/38/97 20/35/98 19/34/99 24/39/100
f 28/44/101 25/40/102 24/39/103 19/34/104
s 2
f 33/49/8 23/38/69 24/39/105 34/50/41
f 53/75/52 17/31/51 35/51/34 52/74/33
s 1
f 36/52/3 35/51/2 17/31/55 18/32/54
s 4
f 59/83/27 36/53/26 18/33/58 58/82/57
f 38/55/13 37/54/46 19/34/106 20/35/64
f 20/35/64 48/68/63 49/69/14 38/55/13
s 3
f 40/57/11 39/56/10 21/36/67 22/37/66
s 2
f 33/49/8 42/60/7 43/61/70 23/38/69
f 41/58/6 6/6/107 40/57/108 42/60/7
f 43/61/70 42/60/7 40/57/108 22/37/109
f 44/62/71 43/61/70 22/37/109 31/47/110
f 31/47/110 70/96/111 71/97/85 44/62/71
s 6
f 5/14/112 7/13/113 46/65/22 45/63/21
s 4
f 47/67/62 68/94/82 69/95/114 30/46/115
f 48/68/63 47/67/62 30/46/115 21/36/116
f 49/69/14 48/68/63 21/36/116 39/56/117
f 50/70/15 49/69/14 39/56/117 8/8/118
s 5
f 41/59/19 50/71/18 8/11/119 6/12/120
s 2
f 34/50/41 52/74/33 51/72/36 16/29/42
f 24/39/105 53/75/52 52/74/33 34/50/41
f 25/40/88 54/76/49 53/75/52 24/39/105
f 62/87/73 54/76/49 25/40/88 61/86/87
s 6
f 56/79/32 55/77/31 13/23/44 14/25/43
s 4
f 66/92/81 28/44/80 57/81/60 65/91/77
f 19/34/106 58/82/57 57/81/60 28/44/80
f 37/54/46 59/83/27 58/82/57 19/34/106
f 60/84/28 59/83/27 37/54/46 15/27/45
s 5
f 16/30/47 51/73/38 60/85/37 15/28/48
s 2
f 55/78/121 62/87/73 61/86/87 13/24/122
f 63/88/74 62/87/73 55/78/121 3/3/123
s 1
f 64/89/76 63/88/75 3/3/124 1/1/125
s 4
f 56/80/126 65/91/77 64/90/78 1/9/127
f 14/26/128 66/92/81 65/91/77 56/80/126
f 10/18/129 67/93/79 66/92/81 14/26/128
f 10/18/129 46/66/130 68/94/82 67/93/79
f 69/95/114 68/94/82 46/66/130 7/7/131
s 3
f 70/96/84 69/95/83 7/7/132 5/5/133
s 2
f 71/97/85 70/96/111 5/5/134 45/64/135
f 72/98/86 71/97/85 45/64/135 9/16/136
f 13/24/122 61/86/87 72/98/86 9/16/136
