# This file uses centimeters as units for non-parametric coordinates.

mtllib trunk.mtl
g default
v -0.927611 -3.277197 0.860113
v 0.927611 -3.277197 0.860113
v -1.079753 3.277197 1.001184
v 1.079753 3.277197 1.001184
v -1.127182 3.277197 -1.020342
v 1.127182 3.277197 -1.020342
v -0.968357 -3.277197 -0.876572
v 0.968357 -3.277197 -0.876572
v 1.457911 3.277197 -0.011257
v -1.457911 3.277197 -0.011257
v -1.252484 -3.277197 -0.009671
v 1.252484 -3.277197 -0.009671
v 0.041913 3.277197 1.504708
v 0.051046 3.277197 -0.014150
v 0.041913 3.277197 -1.504708
v 0.036008 -3.277197 -1.292688
v 0.051046 -3.277197 -0.014150
v 0.036008 -3.277197 1.292688
v 1.079753 2.480425 1.001184
v 0.041913 2.480425 1.504708
v -1.079753 2.480425 1.001184
v -1.457911 2.480425 -0.011257
v -1.127182 2.480425 -1.020342
v 0.041913 2.480425 -1.504708
v 1.127182 2.480425 -1.020342
v 1.457911 2.480425 -0.011257
v 1.079753 1.610189 1.001184
v 0.041913 1.610189 1.504708
v -1.079753 1.610189 1.001184
v -1.457911 1.610189 -0.011257
v -1.127182 1.610189 -1.020342
v 0.041913 1.610189 -1.504708
v 1.127182 1.610189 -1.020342
v 1.457911 1.610189 -0.011257
v 1.079753 0.495872 1.001184
v 0.041913 0.495872 1.504708
v -1.079753 0.495872 1.001184
v -1.457911 0.495872 -0.011257
v -1.127182 0.495872 -1.020342
v 0.041913 0.495872 -1.504708
v 1.127182 0.495872 -1.020342
v 1.457911 0.495872 -0.011257
v 1.079753 -0.395618 1.001184
v 0.041913 -0.395618 1.504708
v -1.079753 -0.395618 1.001184
v -1.457911 -0.395618 -0.011257
v -1.127182 -0.395618 -1.020342
v 0.041913 -0.395618 -1.504708
v 1.127182 -0.395618 -1.020342
v 1.457911 -0.395618 -0.011257
v 1.079753 -1.509550 1.001184
v 0.041913 -1.509550 1.504708
v -1.079753 -1.509550 1.001184
v -1.457911 -1.509550 -0.011257
v -1.127182 -1.509550 -1.020342
v 0.041913 -1.509550 -1.504708
v 1.127182 -1.509550 -1.020342
v 1.457911 -1.509550 -0.011257
v 1.079753 -2.422755 1.001184
v 0.041913 -2.422755 1.504708
v -1.079753 -2.422755 1.001184
v -1.457911 -2.422755 -0.011257
v -1.127182 -2.422755 -1.020342
v 0.041913 -2.422755 -1.504708
v 1.127182 -2.422755 -1.020342
v 1.457911 -2.422755 -0.011257
v 1.326116 3.277197 0.598641
v 0.046431 3.277197 0.752476
v -1.326116 3.277197 0.598641
v -1.326116 2.480425 0.598641
v -1.326116 1.610189 0.598641
v -1.326116 0.495872 0.598641
v -1.326116 -0.395618 0.598641
v -1.326116 -1.509550 0.598641
v -1.326116 -2.422755 0.598641
v -1.139260 -3.277197 0.514290
v 0.046431 -3.277197 0.752476
v 1.139260 -3.277197 0.514290
v 1.326116 -2.422755 0.598641
v 1.326116 -1.509550 0.598641
v 1.326116 -0.395618 0.598641
v 1.326116 0.495872 0.598641
v 1.326116 1.610189 0.598641
v 1.326116 2.480425 0.598641
v 1.355917 3.277197 -0.601337
v 0.047475 3.277197 -0.755865
v -1.355917 3.277197 -0.601337
v -1.355917 2.480425 -0.601337
v -1.355917 1.610189 -0.601337
v -1.355917 0.495872 -0.601337
v -1.355917 -0.395618 -0.601337
v -1.355917 -1.509550 -0.601337
v -1.355917 -2.422755 -0.601337
v -1.164862 -3.277197 -0.516606
v 0.047475 -3.277197 -0.755865
v 1.164862 -3.277197 -0.516606
v 1.355917 -2.422755 -0.601337
v 1.355917 -1.509550 -0.601337
v 1.355917 -0.395618 -0.601337
v 1.355917 0.495872 -0.601337
v 1.355917 1.610189 -0.601337
v 1.355917 2.480425 -0.601337
v 0.826095 3.277197 -0.674826
v 0.888235 3.277197 -0.012633
v 0.807939 3.277197 0.671800
v 0.729328 3.277197 1.343383
v 0.729328 2.480425 1.343383
v 0.729328 1.610189 1.343383
v 0.729328 0.495872 1.343383
v 0.729328 -0.395618 1.343383
v 0.729328 -1.509550 1.343383
v 0.729328 -2.422755 1.343383
v 0.626562 -3.277197 1.154095
v 0.807939 -3.277197 0.671800
v 0.888235 -3.277197 -0.012633
v 0.826095 -3.277197 -0.674826
v 0.626562 -3.277197 -1.154095
v 0.729328 -2.422755 -1.343383
v 0.729328 -1.509550 -1.343383
v 0.729328 -0.395618 -1.343383
v 0.729328 0.495872 -1.343383
v 0.729328 1.610189 -1.343383
v 0.729328 2.480425 -1.343383
v 0.729328 3.277197 -1.343383
v -0.715841 3.277197 -0.671893
v -0.769687 3.277197 -0.012578
v -0.700108 3.277197 0.668881
v -0.631989 3.277197 1.337546
v -0.631989 2.480425 1.337546
v -0.631989 1.610189 1.337546
v -0.631989 0.495872 1.337546
v -0.631989 -0.395618 1.337546
v -0.631989 -1.509550 1.337546
v -0.631989 -2.422755 1.337546
v -0.542939 -3.277197 1.149080
v -0.700108 -3.277197 0.668881
v -0.769687 -3.277197 -0.012578
v -0.715841 -3.277197 -0.671893
v -0.542939 -3.277197 -1.149080
v -0.631989 -2.422755 -1.337546
v -0.631989 -1.509550 -1.337546
v -0.631989 -0.395618 -1.337546
v -0.631989 0.495872 -1.337546
v -0.631989 1.610189 -1.337546
v -0.631989 2.480425 -1.337546
v -0.631989 3.277197 -1.337546
vt 0.375000 0.000000
vt 0.625000 0.000000
vt 0.375000 0.250000
vt 0.625000 0.250000
vt 0.375000 0.500000
vt 0.625000 0.500000
vt 0.375000 0.750000
vt 0.625000 0.750000
vt 0.375000 1.000000
vt 0.625000 1.000000
vt 0.875000 0.000000
vt 0.875000 0.250000
vt 0.125000 0.000000
vt 0.125000 0.250000
vt 0.625000 0.376175
vt 0.751175 0.250000
vt 0.248825 0.250000
vt 0.375000 0.376175
vt 0.248825 0.000000
vt 0.375000 0.873825
vt 0.625000 0.873825
vt 0.751175 0.000000
vt 0.504377 0.250000
vt 0.504377 0.376175
vt 0.504377 0.500000
vt 0.504377 0.750000
vt 0.504377 0.873825
vt 0.504377 0.000000
vt 0.504377 1.000000
vt 0.625000 0.219609
vt 0.504377 0.219609
vt 0.375000 0.219609
vt 0.248825 0.219609
vt 0.125000 0.219609
vt 0.375000 0.530391
vt 0.504377 0.530391
vt 0.625000 0.530391
vt 0.875000 0.219609
vt 0.751175 0.219609
vt 0.625000 0.186416
vt 0.504377 0.186416
vt 0.375000 0.186416
vt 0.248825 0.186416
vt 0.125000 0.186416
vt 0.375000 0.563584
vt 0.504377 0.563584
vt 0.625000 0.563584
vt 0.875000 0.186416
vt 0.751175 0.186416
vt 0.625000 0.143914
vt 0.504377 0.143914
vt 0.375000 0.143914
vt 0.248825 0.143914
vt 0.125000 0.143914
vt 0.375000 0.606086
vt 0.504377 0.606086
vt 0.625000 0.606086
vt 0.875000 0.143914
vt 0.751175 0.143914
vt 0.625000 0.109910
vt 0.504377 0.109910
vt 0.375000 0.109910
vt 0.248825 0.109910
vt 0.125000 0.109910
vt 0.375000 0.640090
vt 0.504377 0.640090
vt 0.625000 0.640090
vt 0.875000 0.109910
vt 0.751175 0.109910
vt 0.625000 0.067422
vt 0.504377 0.067422
vt 0.375000 0.067422
vt 0.248825 0.067422
vt 0.125000 0.067422
vt 0.375000 0.682578
vt 0.504377 0.682578
vt 0.625000 0.682578
vt 0.875000 0.067422
vt 0.751175 0.067422
vt 0.625000 0.032590
vt 0.504377 0.032590
vt 0.375000 0.032590
vt 0.248825 0.032590
vt 0.125000 0.032590
vt 0.375000 0.717410
vt 0.504377 0.717410
vt 0.625000 0.717410
vt 0.875000 0.032590
vt 0.751175 0.032590
vt 0.625000 0.312490
vt 0.687490 0.250000
vt 0.504377 0.312490
vt 0.312510 0.250000
vt 0.375000 0.312490
vt 0.312510 0.219609
vt 0.312510 0.186416
vt 0.312510 0.143914
vt 0.312510 0.109910
vt 0.312510 0.067422
vt 0.312510 0.032590
vt 0.312510 0.000000
vt 0.375000 0.937510
vt 0.504377 0.937510
vt 0.625000 0.937510
vt 0.687490 0.000000
vt 0.687490 0.032590
vt 0.687490 0.067422
vt 0.687490 0.109910
vt 0.687490 0.143914
vt 0.687490 0.186416
vt 0.687490 0.219609
vt 0.625000 0.437792
vt 0.812792 0.250000
vt 0.504377 0.437792
vt 0.187208 0.250000
vt 0.375000 0.437792
vt 0.187208 0.219609
vt 0.187208 0.186416
vt 0.187208 0.143914
vt 0.187208 0.109910
vt 0.187208 0.067422
vt 0.187208 0.032590
vt 0.187208 0.000000
vt 0.375000 0.812208
vt 0.504377 0.812208
vt 0.625000 0.812208
vt 0.812792 0.000000
vt 0.812792 0.032590
vt 0.812792 0.067422
vt 0.812792 0.109910
vt 0.812792 0.143914
vt 0.812792 0.186416
vt 0.812792 0.219609
vt 0.576156 0.437792
vt 0.576156 0.376175
vt 0.576156 0.312490
vt 0.576156 0.250000
vt 0.576156 0.219609
vt 0.576156 0.186416
vt 0.576156 0.143914
vt 0.576156 0.109910
vt 0.576156 0.067422
vt 0.576156 0.032590
vt 0.576156 0.000000
vt 0.576156 1.000000
vt 0.576156 0.937510
vt 0.576156 0.873825
vt 0.576156 0.812208
vt 0.576156 0.750000
vt 0.576156 0.717410
vt 0.576156 0.682578
vt 0.576156 0.640090
vt 0.576156 0.606086
vt 0.576156 0.563584
vt 0.576156 0.530391
vt 0.576156 0.500000
vt 0.434008 0.437792
vt 0.434008 0.376175
vt 0.434008 0.312490
vt 0.434008 0.250000
vt 0.434008 0.219609
vt 0.434008 0.186416
vt 0.434008 0.143914
vt 0.434008 0.109910
vt 0.434008 0.067422
vt 0.434008 0.032590
vt 0.434008 0.000000
vt 0.434008 1.000000
vt 0.434008 0.937510
vt 0.434008 0.873825
vt 0.434008 0.812208
vt 0.434008 0.750000
vt 0.434008 0.717410
vt 0.434008 0.682578
vt 0.434008 0.640090
vt 0.434008 0.606086
vt 0.434008 0.563584
vt 0.434008 0.530391
vt 0.434008 0.500000
vn -0.332498 -0.584190 0.740384
vn -0.005619 -0.589502 0.807748
vn -0.002870 -0.109362 0.993998
vn -0.407052 -0.108392 0.906951
vn -0.326033 0.605159 0.726281
vn -0.003362 0.620765 0.783989
vn 0.000000 1.000000 0.000000
vn 0.000000 1.000000 0.000000
vn -0.381355 -0.109052 -0.917974
vn -0.002870 -0.109362 -0.993998
vn -0.005615 -0.590411 -0.807083
vn -0.308034 -0.588537 -0.747488
vn 0.000000 -1.000000 0.000000
vn 0.000000 -1.000000 0.000000
vn 0.715048 -0.405652 0.569344
vn 0.807542 -0.508123 0.299478
vn 0.930991 -0.107044 0.348994
vn 0.774719 -0.109380 0.622774
vn -0.767010 -0.575140 0.284447
vn -0.650234 -0.452757 0.610088
vn -0.724356 -0.108204 0.680882
vn -0.930991 -0.107044 0.348994
vn 0.000000 1.000000 0.000000
vn 0.000000 1.000000 0.000000
vn 0.000000 1.000000 0.000000
vn 0.000000 1.000000 0.000000
vn -0.775470 -0.579626 -0.250360
vn -0.817570 -0.575417 0.021774
vn -0.993972 -0.107028 0.023770
vn -0.943922 -0.108796 -0.311727
vn 0.000000 -1.000000 0.000000
vn 0.000000 -1.000000 0.000000
vn 0.000000 -1.000000 -0.000000
vn 0.000000 -1.000000 0.000000
vn 0.993972 -0.107028 0.023770
vn 0.862019 -0.506355 0.022957
vn 0.816991 -0.512790 -0.263765
vn 0.943922 -0.108796 -0.311727
vn 0.345437 0.611337 0.711998
vn 0.702608 0.435139 0.563024
vn 0.794307 0.530147 0.296682
vn 0.000000 1.000000 0.000000
vn 0.000000 1.000000 -0.000000
vn 0.000000 1.000000 -0.000000
vn 0.844842 0.534605 0.020982
vn 0.801479 0.537241 -0.262685
vn 0.325175 -0.595591 -0.734528
vn 0.406484 -0.110814 -0.906913
vn 0.758393 -0.111416 -0.642205
vn 0.695116 -0.419597 -0.583739
vn 0.000000 -1.000000 -0.000000
vn 0.000000 -1.000000 -0.000000
vn 0.352094 -0.591975 0.724980
vn 0.000000 -1.000000 0.000000
vn 0.433660 -0.110093 0.894326
vn 0.436505 0.000000 0.899702
vn 0.780360 0.000000 0.625330
vn -0.409535 0.000000 0.912294
vn -0.004288 0.000000 0.999991
vn -0.936787 0.000000 0.349900
vn -0.728846 0.000000 0.684678
vn -0.636782 0.486492 0.598193
vn -0.745267 0.605880 0.278365
vn -0.950263 0.000000 -0.311449
vn -0.999692 0.000000 0.024827
vn -0.794259 0.607259 0.019725
vn -0.751132 0.612530 -0.246184
vn -0.303308 0.609966 -0.732083
vn -0.003355 0.622755 -0.782410
vn -0.004288 0.000000 -0.999991
vn -0.382758 0.000000 -0.923849
vn 0.764044 0.000000 -0.645164
vn 0.407560 0.000000 -0.913178
vn 0.321146 0.615712 -0.719559
vn 0.683906 0.445838 -0.577495
vn 0.999692 0.000000 0.024827
vn 0.950263 0.000000 -0.311449
vn 0.936787 0.000000 0.349900
vn 0.436505 0.000000 0.899702
vn 0.780360 0.000000 0.625330
vn -0.409536 0.000000 0.912294
vn -0.004288 0.000000 0.999991
vn -0.936787 0.000000 0.349900
vn -0.728846 0.000000 0.684678
vn -0.950263 0.000000 -0.311449
vn -0.999692 0.000000 0.024827
vn -0.004288 0.000000 -0.999991
vn -0.382758 0.000000 -0.923849
vn 0.764044 0.000000 -0.645164
vn 0.407560 0.000000 -0.913178
vn 0.999692 0.000000 0.024827
vn 0.950263 0.000000 -0.311449
vn 0.936787 0.000000 0.349900
vn 0.436505 0.000000 0.899702
vn 0.780360 0.000000 0.625330
vn -0.409535 0.000000 0.912294
vn -0.004288 0.000000 0.999991
vn -0.936787 0.000000 0.349900
vn -0.728846 0.000000 0.684678
vn -0.950263 0.000000 -0.311449
vn -0.999692 0.000000 0.024827
vn -0.004288 0.000000 -0.999991
vn -0.382758 0.000000 -0.923849
vn 0.764044 0.000000 -0.645164
vn 0.407560 0.000000 -0.913178
vn 0.999692 0.000000 0.024827
vn 0.950263 0.000000 -0.311449
vn 0.936787 0.000000 0.349900
vn 0.436505 0.000000 0.899702
vn 0.780360 0.000000 0.625330
vn -0.409536 0.000000 0.912294
vn -0.004288 0.000000 0.999991
vn -0.936787 0.000000 0.349900
vn -0.728846 0.000000 0.684678
vn -0.950263 0.000000 -0.311449
vn -0.999692 0.000000 0.024827
vn -0.004288 0.000000 -0.999991
vn -0.382758 0.000000 -0.923849
vn 0.764044 0.000000 -0.645164
vn 0.407560 0.000000 -0.913178
vn 0.999692 0.000000 0.024827
vn 0.950263 0.000000 -0.311449
vn 0.936787 0.000000 0.349900
vn 0.436505 0.000000 0.899702
vn 0.780360 0.000000 0.625330
vn -0.409535 0.000000 0.912294
vn -0.004288 0.000000 0.999991
vn -0.936787 0.000000 0.349900
vn -0.728846 0.000000 0.684678
vn -0.950263 0.000000 -0.311449
vn -0.999692 0.000000 0.024827
vn -0.004288 0.000000 -0.999991
vn -0.382758 0.000000 -0.923849
vn 0.764044 0.000000 -0.645164
vn 0.407560 0.000000 -0.913178
vn 0.999692 0.000000 0.024827
vn 0.950263 0.000000 -0.311449
vn 0.936787 0.000000 0.349900
vn -0.713029 0.000000 -0.701135
vn -0.620250 0.493262 -0.609904
vn -0.713029 0.000000 -0.701135
vn -0.713029 0.000000 -0.701135
vn -0.713029 0.000000 -0.701135
vn -0.713029 0.000000 -0.701135
vn -0.709146 -0.109995 -0.696429
vn -0.631790 -0.461547 -0.622748
s 1
g pCube1
usemtl initialShadingGroup
f 135/167/1 18/28/2 60/81/3 134/166/4
f 128/160/5 13/23/6 68/92/7 127/159/8
f 140/173/9 64/86/10 16/26/11 139/172/12
f 136/169/13 77/103/14 18/29/2 135/168/1
f 2/2/15 78/105/16 79/106/17 59/80/18
f 76/101/19 1/1/20 61/82/21 75/100/22
f 126/158/23 14/24/24 86/114/25 125/157/26
f 94/123/27 11/19/28 62/83/29 93/122/30
f 138/171/31 95/125/32 17/27/33 137/170/34
f 66/89/35 12/22/36 96/127/37 97/128/38
f 106/137/39 4/4/40 67/90/41 105/136/42
f 103/134/43 104/135/44 9/15/45 85/112/46
f 117/149/47 118/150/48 65/87/49 8/8/50
f 115/147/51 116/148/52 96/126/37 12/21/36
f 113/145/53 114/146/54 78/104/16 2/10/15
f 112/143/55 113/144/53 2/2/15 59/80/18
f 106/137/39 107/138/56 19/30/57 4/4/40
f 129/161/58 20/31/59 13/23/6 128/160/5
f 70/95/60 21/32/61 3/3/62 69/93/63
f 88/117/64 22/33/65 10/17/66 87/115/67
f 146/179/68 15/25/69 24/36/70 145/178/71
f 25/37/72 123/155/73 124/156/74 6/6/75
f 9/16/45 26/39/76 102/133/77 85/113/46
f 19/30/57 84/111/78 67/91/41 4/4/40
f 107/138/56 108/139/79 27/40/80 19/30/57
f 130/162/81 28/41/82 20/31/59 129/161/58
f 71/96/83 29/42/84 21/32/61 70/95/60
f 89/118/85 30/43/86 22/33/65 88/117/64
f 145/178/71 24/36/70 32/46/87 144/177/88
f 33/47/89 122/154/90 123/155/73 25/37/72
f 26/39/76 34/49/91 101/132/92 102/133/77
f 27/40/80 83/110/93 84/111/78 19/30/57
f 108/139/79 109/140/94 35/50/95 27/40/80
f 131/163/96 36/51/97 28/41/82 130/162/81
f 72/97/98 37/52/99 29/42/84 71/96/83
f 90/119/100 38/53/101 30/43/86 89/118/85
f 144/177/88 32/46/87 40/56/102 143/176/103
f 41/57/104 121/153/105 122/154/90 33/47/89
f 34/49/91 42/59/106 100/131/107 101/132/92
f 35/50/95 82/109/108 83/110/93 27/40/80
f 109/140/94 110/141/109 43/60/110 35/50/95
f 132/164/111 44/61/112 36/51/97 131/163/96
f 73/98/113 45/62/114 37/52/99 72/97/98
f 91/120/115 46/63/116 38/53/101 90/119/100
f 143/176/103 40/56/102 48/66/117 142/175/118
f 49/67/119 120/152/120 121/153/105 41/57/104
f 42/59/106 50/69/121 99/130/122 100/131/107
f 43/60/110 81/108/123 82/109/108 35/50/95
f 110/141/109 111/142/124 51/70/125 43/60/110
f 133/165/126 52/71/127 44/61/112 132/164/111
f 74/99/128 53/72/129 45/62/114 73/98/113
f 92/121/130 54/73/131 46/63/116 91/120/115
f 142/175/118 48/66/117 56/76/132 141/174/133
f 57/77/134 119/151/135 120/152/120 49/67/119
f 50/69/121 58/79/136 98/129/137 99/130/122
f 51/70/125 80/107/138 81/108/123 43/60/110
f 111/142/124 112/143/55 59/80/18 51/70/125
f 134/166/4 60/81/3 52/71/127 133/165/126
f 75/100/22 61/82/21 53/72/129 74/99/128
f 93/122/30 62/83/29 54/73/131 92/121/130
f 141/174/133 56/76/132 64/86/10 140/173/9
f 65/87/49 118/150/48 119/151/135 57/77/134
f 58/79/136 66/89/35 97/128/38 98/129/137
f 59/80/18 79/106/17 80/107/138 51/70/125
f 105/136/42 67/90/41 9/15/45 104/135/44
f 127/159/8 68/92/7 14/24/24 126/158/23
f 22/33/65 70/95/60 69/93/63 10/17/66
f 30/43/86 71/96/83 70/95/60 22/33/65
f 38/53/101 72/97/98 71/96/83 30/43/86
f 46/63/116 73/98/113 72/97/98 38/53/101
f 54/73/131 74/99/128 73/98/113 46/63/116
f 62/83/29 75/100/22 74/99/128 54/73/131
f 11/19/28 76/101/19 75/100/22 62/83/29
f 137/170/34 17/27/33 77/103/14 136/169/13
f 78/104/16 114/146/54 115/147/51 12/21/36
f 79/106/17 78/105/16 12/22/36 66/89/35
f 80/107/138 79/106/17 66/89/35 58/79/136
f 81/108/123 80/107/138 58/79/136 50/69/121
f 82/109/108 81/108/123 50/69/121 42/59/106
f 83/110/93 82/109/108 42/59/106 34/49/91
f 84/111/78 83/110/93 34/49/91 26/39/76
f 67/91/41 84/111/78 26/39/76 9/16/45
f 124/156/74 103/134/43 85/112/46 6/6/75
f 146/179/68 125/157/26 86/114/25 15/25/69
f 23/34/139 88/117/64 87/115/67 5/14/140
f 31/44/141 89/118/85 88/117/64 23/34/139
f 39/54/142 90/119/100 89/118/85 31/44/141
f 47/64/143 91/120/115 90/119/100 39/54/142
f 55/74/144 92/121/130 91/120/115 47/64/143
f 63/84/145 93/122/30 92/121/130 55/74/144
f 7/13/146 94/123/27 93/122/30 63/84/145
f 139/172/12 16/26/11 95/125/32 138/171/31
f 96/126/37 116/148/52 117/149/47 8/8/50
f 97/128/38 96/127/37 8/11/50 65/88/49
f 98/129/137 97/128/38 65/88/49 57/78/134
f 99/130/122 98/129/137 57/78/134 49/68/119
f 100/131/107 99/130/122 49/68/119 41/58/104
f 101/132/92 100/131/107 41/58/104 33/48/89
f 102/133/77 101/132/92 33/48/89 25/38/72
f 85/113/46 102/133/77 25/38/72 6/12/75
f 86/114/25 14/24/24 104/135/44 103/134/43
f 68/92/7 105/136/42 104/135/44 14/24/24
f 13/23/6 106/137/39 105/136/42 68/92/7
f 13/23/6 20/31/59 107/138/56 106/137/39
f 20/31/59 28/41/82 108/139/79 107/138/56
f 28/41/82 36/51/97 109/140/94 108/139/79
f 36/51/97 44/61/112 110/141/109 109/140/94
f 44/61/112 52/71/127 111/142/124 110/141/109
f 52/71/127 60/81/3 112/143/55 111/142/124
f 60/81/3 18/28/2 113/144/53 112/143/55
f 18/29/2 77/103/14 114/146/54 113/145/53
f 115/147/51 114/146/54 77/103/14 17/27/33
f 17/27/33 95/125/32 116/148/52 115/147/51
f 117/149/47 116/148/52 95/125/32 16/26/11
f 16/26/11 64/86/10 118/150/48 117/149/47
f 119/151/135 118/150/48 64/86/10 56/76/132
f 120/152/120 119/151/135 56/76/132 48/66/117
f 121/153/105 120/152/120 48/66/117 40/56/102
f 122/154/90 121/153/105 40/56/102 32/46/87
f 123/155/73 122/154/90 32/46/87 24/36/70
f 124/156/74 123/155/73 24/36/70 15/25/69
f 15/25/69 86/114/25 103/134/43 124/156/74
f 10/18/66 126/158/23 125/157/26 87/116/67
f 69/94/63 127/159/8 126/158/23 10/18/66
f 3/3/62 128/160/5 127/159/8 69/94/63
f 21/32/61 129/161/58 128/160/5 3/3/62
f 29/42/84 130/162/81 129/161/58 21/32/61
f 37/52/99 131/163/96 130/162/81 29/42/84
f 45/62/114 132/164/111 131/163/96 37/52/99
f 53/72/129 133/165/126 132/164/111 45/62/114
f 61/82/21 134/166/4 133/165/126 53/72/129
f 1/1/20 135/167/1 134/166/4 61/82/21
f 76/102/19 136/169/13 135/168/1 1/9/20
f 11/20/28 137/170/34 136/169/13 76/102/19
f 94/124/27 138/171/31 137/170/34 11/20/28
f 7/7/146 139/172/12 138/171/31 94/124/27
f 63/85/145 140/173/9 139/172/12 7/7/146
f 55/75/144 141/174/133 140/173/9 63/85/145
f 47/65/143 142/175/118 141/174/133 55/75/144
f 39/55/142 143/176/103 142/175/118 47/65/143
f 31/45/141 144/177/88 143/176/103 39/55/142
f 23/35/139 145/178/71 144/177/88 31/45/141
f 5/5/140 146/179/68 145/178/71 23/35/139
f 87/116/67 125/157/26 146/179/68 5/5/140
